<?xml version="1.0" encoding="UTF-8" standalone="no"?>
<!-- Created with Inkscape (http://www.inkscape.org/) -->

<svg
   xmlns:dc="http://purl.org/dc/elements/1.1/"
   xmlns:cc="http://creativecommons.org/ns#"
   xmlns:rdf="http://www.w3.org/1999/02/22-rdf-syntax-ns#"
   xmlns:svg="http://www.w3.org/2000/svg"
   xmlns="http://www.w3.org/2000/svg"
   xmlns:sodipodi="http://sodipodi.sourceforge.net/DTD/sodipodi-0.dtd"
   xmlns:inkscape="http://www.inkscape.org/namespaces/inkscape"
   width="128"
   height="128"
   viewBox="0 0 33.866666 33.866668"
   version="1.1"
   id="svg8"
   inkscape:version="0.92.4 (5da689c313, 2019-01-14)"
   sodipodi:docname="PSDiscoveryProtocol.svg">
  <title
     id="title3827">PSDiscoveryProtocol</title>
  <defs
     id="defs2" />
  <sodipodi:namedview
     id="base"
     pagecolor="#ffffff"
     bordercolor="#666666"
     borderopacity="1.0"
     inkscape:pageopacity="0.0"
     inkscape:pageshadow="2"
     inkscape:zoom="6.625"
     inkscape:cx="60.613869"
     inkscape:cy="65.931219"
     inkscape:document-units="px"
     inkscape:current-layer="layer1"
     showgrid="false"
     units="px"
     inkscape:window-width="1920"
     inkscape:window-height="1017"
     inkscape:window-x="-8"
     inkscape:window-y="-8"
     inkscape:window-maximized="1" />
  <metadata
     id="metadata5">
    <rdf:RDF>
      <cc:Work
         rdf:about="">
        <dc:format>image/svg+xml</dc:format>
        <dc:type
           rdf:resource="http://purl.org/dc/dcmitype/StillImage" />
        <dc:title>PSDiscoveryProtocol</dc:title>
      </cc:Work>
    </rdf:RDF>
  </metadata>
  <g
     inkscape:label="Layer 1"
     inkscape:groupmode="layer"
     id="layer1"
     transform="translate(0,-263.13332)">
    <path
       style="fill:#b3b3b3;stroke-width:0.26458335"
       d="M 1.3229166,263.13333 H 32.543752 c 0.732896,0 1.322917,0.59002 1.322917,1.32292 v 31.22083 c 0,0.7329 -0.590021,1.32292 -1.322917,1.32292 H 1.3229166 C 0.59002082,297 0,296.40998 0,295.67708 v -31.22083 c 0,-0.7329 0.59002082,-1.32292 1.3229166,-1.32292 z"
       id="rect3724" />
    <path
       style="fill:#666666;stroke-width:0.88191718"
       d="M 13.375 19 C 10.95125 19 9 20.95125 9 23.375 L 9 84.625 C 9 87.04875 10.95125 89 13.375 89 L 34 89 L 34 95.666016 C 34 97.512682 35.487318 99 37.333984 99 L 44 99 L 44 105.66602 C 44 107.51268 45.487318 109 47.333984 109 L 80.666016 109 C 82.512682 109 84 107.51268 84 105.66602 L 84 99 L 90.666016 99 C 92.512682 99 94 97.512682 94 95.666016 L 94 89 L 114.625 89 C 117.04875 89 119 87.04875 119 84.625 L 119 23.375 C 119 20.95125 117.04875 19 114.625 19 L 13.375 19 z "
       transform="matrix(0.26458334,0,0,0.26458334,0,263.13332)"
       id="rect3726" />
    <g
       id="g3799"
       transform="translate(2.6158795,-2.2988615)">
      <path
         style="fill:#808000;stroke-width:0.30551454"
         d="m 6.9091201,271.51761 c 0.2931583,0 0.5291667,0.23601 0.5291667,0.52917 v 1.5875 c 0,0.29315 -0.2360084,0.52916 -0.5291667,0.52916 -0.2931584,0 -0.5291667,-0.23601 -0.5291667,-0.52916 v -1.5875 c 0,-0.29316 0.2360083,-0.52917 0.5291667,-0.52917 z"
         id="rect3732" />
      <path
         style="fill:#808000;stroke-width:0.30551454"
         d="m 9.0257878,271.51761 c 0.2931584,0 0.5291667,0.23601 0.5291667,0.52917 v 1.5875 c 0,0.29315 -0.2360083,0.52916 -0.5291667,0.52916 -0.2931583,0 -0.5291667,-0.23601 -0.5291667,-0.52916 v -1.5875 c 0,-0.29316 0.2360084,-0.52917 0.5291667,-0.52917 z"
         id="rect3732-3" />
      <path
         style="fill:#808000;stroke-width:0.30551454"
         d="m 11.142455,271.51761 c 0.293158,0 0.529166,0.23601 0.529166,0.52917 v 1.5875 c 0,0.29315 -0.236008,0.52916 -0.529166,0.52916 -0.293159,0 -0.529167,-0.23601 -0.529167,-0.52916 v -1.5875 c 0,-0.29316 0.236008,-0.52917 0.529167,-0.52917 z"
         id="rect3732-2" />
      <path
         style="fill:#808000;stroke-width:0.30551454"
         d="m 19.609123,271.51761 c 0.293158,0 0.529166,0.23601 0.529166,0.52917 v 1.5875 c 0,0.29315 -0.236008,0.52916 -0.529166,0.52916 -0.293159,0 -0.529167,-0.23601 -0.529167,-0.52916 v -1.5875 c 0,-0.29316 0.236008,-0.52917 0.529167,-0.52917 z"
         id="rect3732-5" />
      <path
         style="fill:#808000;stroke-width:0.30551454"
         d="m 17.492456,271.51761 c 0.293158,0 0.529167,0.23601 0.529167,0.52917 v 1.5875 c 0,0.29315 -0.236009,0.52916 -0.529167,0.52916 -0.293158,0 -0.529167,-0.23601 -0.529167,-0.52916 v -1.5875 c 0,-0.29316 0.236009,-0.52917 0.529167,-0.52917 z"
         id="rect3732-1" />
      <path
         style="fill:#808000;stroke-width:0.30551454"
         d="m 21.72579,271.51761 c 0.293158,0 0.529166,0.23601 0.529166,0.52917 v 1.5875 c 0,0.29315 -0.236008,0.52916 -0.529166,0.52916 -0.293159,0 -0.529167,-0.23601 -0.529167,-0.52916 v -1.5875 c 0,-0.29316 0.236008,-0.52917 0.529167,-0.52917 z"
         id="rect3732-13" />
      <path
         style="fill:#808000;stroke-width:0.30551454"
         d="m 13.25912,271.51761 c 0.293159,0 0.529167,0.23601 0.529167,0.52917 v 1.5875 c 0,0.29315 -0.236008,0.52916 -0.529167,0.52916 -0.293158,0 -0.529166,-0.23601 -0.529166,-0.52916 v -1.5875 c 0,-0.29316 0.236008,-0.52917 0.529166,-0.52917 z"
         id="rect3732-6" />
      <path
         style="fill:#808000;stroke-width:0.30551454"
         d="m 15.375789,271.51761 c 0.293159,0 0.529167,0.23601 0.529167,0.52917 v 1.5875 c 0,0.29315 -0.236008,0.52916 -0.529167,0.52916 -0.293158,0 -0.529167,-0.23601 -0.529167,-0.52916 v -1.5875 c 0,-0.29316 0.236009,-0.52917 0.529167,-0.52917 z"
         id="rect3732-9" />
    </g>
    <g
       aria-label="LLDP"
       style="font-style:normal;font-weight:normal;font-size:10.58333397px;line-height:1.25;font-family:sans-serif;letter-spacing:0px;word-spacing:0px;fill:#000000;fill-opacity:1;stroke:none;stroke-width:0.26458335"
       id="text834">
      <path
         d="m 9.1508627,274.00255 v 3.67592 H 11.22481 q 0.248047,0 0.378961,0.12058 0.134359,0.12058 0.134359,0.30317 0,0.18603 -0.130914,0.30317 -0.130914,0.11368 -0.382406,0.11368 H 8.7546767 q -0.3341743,0 -0.4823134,-0.14814 -0.144694,-0.14813 -0.144694,-0.47886 v -3.88952 q 0,-0.31006 0.1378038,-0.46508 0.1412489,-0.15503 0.3686253,-0.15503 0.2308214,0 0.3720703,0.15503 0.144694,0.15158 0.144694,0.46508 z"
         style="font-style:normal;font-variant:normal;font-weight:normal;font-stretch:normal;font-size:7.05555582px;font-family:'Arial Rounded MT Bold';-inkscape-font-specification:'Arial Rounded MT Bold, ';fill:#333333;fill-opacity:1;stroke-width:0.26458335"
         id="path865" />
      <path
         d="m 13.409001,274.00255 v 3.67592 h 2.073947 q 0.248047,0 0.378961,0.12058 0.134359,0.12058 0.134359,0.30317 0,0.18603 -0.130914,0.30317 -0.130914,0.11368 -0.382406,0.11368 h -2.470133 q -0.334174,0 -0.482314,-0.14814 -0.144694,-0.14813 -0.144694,-0.47886 v -3.88952 q 0,-0.31006 0.137804,-0.46508 0.141249,-0.15503 0.368626,-0.15503 0.230821,0 0.37207,0.15503 0.144694,0.15158 0.144694,0.46508 z"
         style="font-style:normal;font-variant:normal;font-weight:normal;font-stretch:normal;font-size:7.05555582px;font-family:'Arial Rounded MT Bold';-inkscape-font-specification:'Arial Rounded MT Bold, ';fill:#333333;fill-opacity:1;stroke-width:0.26458335"
         id="path867" />
      <path
         d="m 17.298514,273.46856 h 1.333252 q 0.520209,0 0.89228,0.0965 0.37207,0.0965 0.675238,0.36173 0.788927,0.67524 0.788927,2.05328 0,0.45475 -0.07924,0.83027 -0.07924,0.37551 -0.244602,0.67868 -0.165364,0.29972 -0.423747,0.53743 -0.20326,0.18259 -0.444417,0.29284 -0.241157,0.11024 -0.520209,0.15503 -0.275608,0.0448 -0.623563,0.0448 h -1.333252 q -0.279052,0 -0.420301,-0.0827 -0.141249,-0.0861 -0.186035,-0.23771 -0.04134,-0.15503 -0.04134,-0.39963 v -3.70348 q 0,-0.33073 0.14814,-0.47887 0.148139,-0.14814 0.478868,-0.14814 z m 0.396186,0.8096 v 3.42787 h 0.775146 q 0.254937,0 0.399631,-0.0138 0.144694,-0.0138 0.299724,-0.0689 0.155029,-0.0551 0.268717,-0.15503 0.513319,-0.43408 0.513319,-1.49517 0,-0.74759 -0.227376,-1.11966 -0.223931,-0.37207 -0.55466,-0.47198 -0.330729,-0.10335 -0.799262,-0.10335 z"
         style="font-style:normal;font-variant:normal;font-weight:normal;font-stretch:normal;font-size:7.05555582px;font-family:'Arial Rounded MT Bold';-inkscape-font-specification:'Arial Rounded MT Bold, ';fill:#333333;fill-opacity:1;stroke-width:0.26458335"
         id="path869" />
      <path
         d="m 23.847641,276.55192 h -0.937066 v 1.42972 q 0,0.30661 -0.144694,0.46509 -0.144694,0.15847 -0.365181,0.15847 -0.230821,0 -0.37207,-0.15503 -0.141249,-0.15847 -0.141249,-0.46164 v -3.89296 q 0,-0.33762 0.15503,-0.48231 0.155029,-0.1447 0.492648,-0.1447 h 1.312582 q 0.582221,0 0.895724,0.0896 0.310059,0.0861 0.53399,0.28594 0.227377,0.19981 0.34451,0.4892 0.117133,0.28939 0.117133,0.65113 0,0.7717 -0.475423,1.17133 -0.475423,0.39618 -1.415934,0.39618 z m -0.248047,-2.3151 h -0.689019 v 1.5434 h 0.689019 q 0.361735,0 0.602891,-0.0758 0.244602,-0.0758 0.372071,-0.24805 0.127468,-0.17225 0.127468,-0.4513 0,-0.33418 -0.19637,-0.54433 -0.220486,-0.22393 -0.90606,-0.22393 z"
         style="font-style:normal;font-variant:normal;font-weight:normal;font-stretch:normal;font-size:7.05555582px;font-family:'Arial Rounded MT Bold';-inkscape-font-specification:'Arial Rounded MT Bold, ';fill:#333333;fill-opacity:1;stroke-width:0.26458335"
         id="path871" />
    </g>
    <g
       aria-label="CDP"
       style="font-style:normal;font-weight:normal;font-size:10.58333302px;line-height:1.25;font-family:sans-serif;letter-spacing:0px;word-spacing:0px;fill:#000000;fill-opacity:1;stroke:none;stroke-width:0.26458335"
       id="text834-1">
      <path
         d="m 14.187592,283.4987 q 0,0.24116 -0.120578,0.52366 -0.117134,0.27905 -0.372071,0.55121 -0.254937,0.26872 -0.651123,0.43753 -0.396186,0.16881 -0.923285,0.16881 -0.399632,0 -0.726916,-0.0758 -0.327284,-0.0758 -0.596001,-0.23427 -0.265273,-0.16192 -0.489204,-0.42375 -0.199815,-0.23771 -0.3410642,-0.53054 -0.1412489,-0.29628 -0.2135959,-0.63045 -0.068902,-0.33418 -0.068902,-0.70969 0,-0.60979 0.1756999,-1.0921 0.1791451,-0.48231 0.5098741,-0.82338 0.330729,-0.34451 0.775147,-0.52365 0.444417,-0.17915 0.947401,-0.17915 0.613227,0 1.092095,0.2446 0.478868,0.24461 0.733805,0.60634 0.254938,0.35829 0.254938,0.67869 0,0.1757 -0.124024,0.31005 -0.124023,0.13436 -0.299723,0.13436 -0.196371,0 -0.296278,-0.093 -0.09646,-0.093 -0.217041,-0.3204 -0.199816,-0.37551 -0.471979,-0.56155 -0.268717,-0.18603 -0.664903,-0.18603 -0.630452,0 -1.005968,0.47886 -0.37207,0.47887 -0.37207,1.36082 0,0.58911 0.165364,0.98185 0.165365,0.38929 0.468533,0.58222 0.303169,0.19293 0.70969,0.19293 0.440972,0 0.744141,-0.21705 0.306613,-0.22048 0.461643,-0.64423 0.06546,-0.19981 0.161919,-0.32384 0.09646,-0.12747 0.310059,-0.12747 0.18259,0 0.313503,0.12747 0.130914,0.12747 0.130914,0.31695 z"
         style="font-style:normal;font-variant:normal;font-weight:normal;font-stretch:normal;font-size:7.05555582px;font-family:'Arial Rounded MT Bold';-inkscape-font-specification:'Arial Rounded MT Bold, ';fill:#333333;fill-opacity:1;stroke-width:0.26458335"
         id="path858" />
      <path
         d="m 15.74133,280.04327 h 1.333252 q 0.52021,0 0.89228,0.0965 0.37207,0.0965 0.675239,0.36174 0.788926,0.67524 0.788926,2.05328 0,0.45475 -0.07924,0.83026 -0.07924,0.37552 -0.244601,0.67869 -0.165365,0.29972 -0.423747,0.53743 -0.203261,0.18259 -0.444418,0.29283 -0.241156,0.11025 -0.520209,0.15503 -0.275608,0.0448 -0.623562,0.0448 h -1.333252 q -0.279053,0 -0.420302,-0.0827 -0.141249,-0.0861 -0.186035,-0.23771 -0.04134,-0.15503 -0.04134,-0.39963 v -3.70348 q 0,-0.33073 0.148139,-0.47887 0.148139,-0.14814 0.478868,-0.14814 z m 0.396186,0.8096 v 3.42787 h 0.775147 q 0.254937,0 0.399631,-0.0138 0.144694,-0.0138 0.299723,-0.0689 0.155029,-0.0551 0.268717,-0.15503 0.51332,-0.43409 0.51332,-1.49518 0,-0.74758 -0.227377,-1.11965 -0.223931,-0.37207 -0.55466,-0.47198 -0.330729,-0.10335 -0.799262,-0.10335 z"
         style="font-style:normal;font-variant:normal;font-weight:normal;font-stretch:normal;font-size:7.05555582px;font-family:'Arial Rounded MT Bold';-inkscape-font-specification:'Arial Rounded MT Bold, ';fill:#333333;fill-opacity:1;stroke-width:0.26458335"
         id="path860" />
      <path
         d="m 22.290457,283.12663 h -0.937066 v 1.42972 q 0,0.30661 -0.144694,0.46508 -0.144694,0.15848 -0.36518,0.15848 -0.230822,0 -0.372071,-0.15503 -0.141249,-0.15848 -0.141249,-0.46164 v -3.89296 q 0,-0.33762 0.15503,-0.48232 0.155029,-0.14469 0.492648,-0.14469 h 1.312582 q 0.582221,0 0.895725,0.0896 0.310058,0.0861 0.53399,0.28595 0.227376,0.19981 0.344509,0.4892 0.117133,0.28939 0.117133,0.65112 0,0.7717 -0.475423,1.17133 -0.475423,0.39619 -1.415934,0.39619 z m -0.248047,-2.3151 h -0.689019 v 1.5434 h 0.689019 q 0.361735,0 0.602892,-0.0758 0.244602,-0.0758 0.37207,-0.24805 0.127469,-0.17225 0.127469,-0.45131 0,-0.33417 -0.196371,-0.54432 -0.220486,-0.22393 -0.90606,-0.22393 z"
         style="font-style:normal;font-variant:normal;font-weight:normal;font-stretch:normal;font-size:7.05555582px;font-family:'Arial Rounded MT Bold';-inkscape-font-specification:'Arial Rounded MT Bold, ';fill:#333333;fill-opacity:1;stroke-width:0.26458335"
         id="path862" />
    </g>
  </g>
</svg>
